<svg id="githubrepo" xmlns="http://www.w3.org/2000/svg" width="38.124" height="51" viewBox="0 0 38.124 51">
  <path id="Path_29" data-name="Path 29" d="M8.993-135.007,8-134.054V-93.46l.993.953c.874.914,1.271.993,4.766.993h3.773V-85l2.383-2.343L22.3-89.687l2.383,2.343L27.062-85v-6.514H35.6c8.578,0,8.578,0,9.531-.993l.993-.953v-40.593l-.993-.953L44.178-136H9.946Zm33.954,16.484v14.3H14.354v-28.6H42.947Zm0,20.654v3.178H27.062v-3.178H17.531v3.178H11.177v-6.355h31.77Z" transform="translate(-8 136)" fill="#fff"/>
  <path id="Path_30" data-name="Path 30" d="M32-118.349v1.651h3.3V-120H32Z" transform="translate(-22.503 126.603)" fill="#fff"/>
  <path id="Path_31" data-name="Path 31" d="M32-102.349v1.651h3.3V-104H32Z" transform="translate(-22.503 116.677)" fill="#fff"/>
  <path id="Path_32" data-name="Path 32" d="M32-86.349V-84.7h3.3V-88H32Z" transform="translate(-22.503 107.016)" fill="#fff"/>
  <path id="Path_33" data-name="Path 33" d="M32-70.349V-68.7h3.3V-72H32Z" transform="translate(-22.503 97.355)" fill="#fff"/>
</svg>
