<svg xmlns="http://www.w3.org/2000/svg" width="73.608" height="71.791" viewBox="0 0 73.608 71.791">
  <g id="Github_Logo" data-name="Github Logo" transform="translate(0.026)">
    <g id="Layer_1" data-name="Layer 1" transform="translate(-0.026 0)">
      <path id="Path_17" data-name="Path 17" d="M36.8,0A36.806,36.806,0,0,0,25.161,71.73c1.828.341,2.511-.8,2.511-1.774,0-.878-.03-3.773-.049-6.851-10.239,2.225-12.4-4.339-12.4-4.339-1.676-4.266-4.09-5.388-4.09-5.388-3.34-2.286.25-2.237.25-2.237,3.7.262,5.644,3.791,5.644,3.791,3.285,5.625,8.612,4,10.709,3.047a7.854,7.854,0,0,1,2.34-4.918c-8.149-.92-16.773-4.077-16.773-18.181a14.231,14.231,0,0,1,3.8-9.892,13.23,13.23,0,0,1,.354-9.752s3.09-.987,10.123,3.773a34.96,34.96,0,0,1,18.437,0c7-4.736,10.111-3.773,10.111-3.773a13.256,13.256,0,0,1,.36,9.752,14.225,14.225,0,0,1,3.785,9.88c0,14.14-8.606,17.248-16.8,18.162,1.316,1.14,2.493,3.383,2.493,6.814,0,4.925-.037,8.892-.037,10.1,0,.981.658,2.127,2.523,1.767A36.806,36.806,0,0,0,36.8,0Z" transform="translate(0.026 0)" fill="#191717" fill-rule="evenodd"/>
      <path id="Path_18" data-name="Path 18" d="M22.251,86.3a.446.446,0,0,1-.609.116c-.244-.122-.421-.372-.335-.555a.449.449,0,0,1,.609-.116c.238.122.421.372.329.555Z" transform="translate(-8.296 -33.461)" fill="#191717"/>
      <path id="Path_19" data-name="Path 19" d="M24.7,88.777c-.177.165-.518.085-.756-.171a.561.561,0,0,1-.1-.762c.183-.165.512-.085.756.171S24.885,88.625,24.7,88.777Z" transform="translate(-9.255 -34.272)" fill="#191717"/>
      <path id="Path_20" data-name="Path 20" d="M27.067,92.1c-.226.158-.609,0-.823-.317s-.226-.719,0-.878.609,0,.823.311S27.293,91.946,27.067,92.1Z" transform="translate(-10.169 -35.478)" fill="#191717"/>
      <path id="Path_21" data-name="Path 21" d="M30.175,95.478a.689.689,0,0,1-.969-.165c-.323-.3-.414-.719-.207-.939s.609-.165.951.14.414.719.2.939Z" transform="translate(-11.266 -36.803)" fill="#191717"/>
      <path id="Path_22" data-name="Path 22" d="M34.471,97.7c-.091.286-.5.421-.92.3s-.689-.463-.609-.756.5-.427.92-.3S34.55,97.412,34.471,97.7Z" transform="translate(-12.843 -37.842)" fill="#191717"/>
      <path id="Path_23" data-name="Path 23" d="M39.389,98.236c0,.3-.341.555-.78.561s-.792-.232-.8-.536.341-.555.786-.561S39.389,97.938,39.389,98.236Z" transform="translate(-14.75 -38.154)" fill="#191717"/>
      <path id="Path_24" data-name="Path 24" d="M44,97.532c.055.3-.25.609-.683.683s-.823-.1-.878-.4.256-.609.683-.683S43.941,97.233,44,97.532Z" transform="translate(-16.554 -37.925)" fill="#191717"/>
    </g>
  </g>
</svg>
